<?xml version="1.0" encoding="UTF-8" standalone="no"?>
<!--?xml version="1.0" encoding="utf-8"?-->

<!-- Generator: Adobe Illustrator 18.1.1, SVG Export Plug-In . SVG Version: 6.00 Build 0)  -->

<svg
   xmlns:dc="http://purl.org/dc/elements/1.1/"
   xmlns:cc="http://creativecommons.org/ns#"
   xmlns:rdf="http://www.w3.org/1999/02/22-rdf-syntax-ns#"
   xmlns:svg="http://www.w3.org/2000/svg"
   xmlns="http://www.w3.org/2000/svg"
   xmlns:sodipodi="http://sodipodi.sourceforge.net/DTD/sodipodi-0.dtd"
   xmlns:inkscape="http://www.inkscape.org/namespaces/inkscape"
   version="1.1"
   id="_x32_"
   x="0px"
   y="0px"
   viewBox="0 0 256 256"
   style="opacity:1"
   xml:space="preserve"
   sodipodi:docname="icon.svg"
   inkscape:version="0.92.3 (2405546, 2018-03-11)"
   width="256"
   height="256"
   inkscape:export-filename="/home/hiro/Desktop/stylish-google-bookmarks/icon128.png"
   inkscape:export-xdpi="48"
   inkscape:export-ydpi="48"><metadata
   id="metadata15"><rdf:RDF><cc:Work
       rdf:about=""><dc:format>image/svg+xml</dc:format><dc:type
         rdf:resource="http://purl.org/dc/dcmitype/StillImage" /><dc:title /></cc:Work></rdf:RDF></metadata><defs
   id="defs13">
	
	
</defs><sodipodi:namedview
   pagecolor="#ffffff"
   bordercolor="#666666"
   borderopacity="1"
   objecttolerance="10"
   gridtolerance="10"
   guidetolerance="10"
   inkscape:pageopacity="0"
   inkscape:pageshadow="2"
   inkscape:window-width="1865"
   inkscape:window-height="1017"
   id="namedview11"
   showgrid="false"
   inkscape:snap-bbox="true"
   inkscape:snap-bbox-midpoints="true"
   inkscape:zoom="1.84375"
   inkscape:cx="-80.101046"
   inkscape:cy="65.121193"
   inkscape:window-x="55"
   inkscape:window-y="30"
   inkscape:window-maximized="1"
   inkscape:current-layer="_x32_"
   borderlayer="true"
   inkscape:snap-bbox-edge-midpoints="true"
   inkscape:bbox-nodes="true"
   inkscape:bbox-paths="true" />
<style
   type="text/css"
   id="style2">
	.st0{fill:#4B4B4B;}
</style>

<path
   style="opacity:1;fill:#357ef7;fill-opacity:1;stroke:none;stroke-width:10.73349667;stroke-linecap:butt;stroke-linejoin:miter;stroke-miterlimit:4;stroke-dasharray:none;stroke-opacity:1;paint-order:fill markers stroke"
   d="M 21.92718,0.7109375 V 255.23914 L 128.5418,198.61376 235.52204,255.43571 V 0.7109375 Z"
   id="rect943"
   inkscape:connector-curvature="0" /><path
   style="opacity:1;fill:#ffffff;stroke-width:1.11649323"
   d="m 126.38213,40.212086 c -6.13712,0.158599 -12.18815,1.19751 -17.77449,3.168487 -20.731491,7.314493 -37.50438,25.908581 -41.728932,46.258144 -1.839814,8.862363 -0.800649,24.993963 2.134858,33.134993 7.466258,20.70619 27.561248,37.45791 49.297954,41.09655 6.44042,1.07809 18.90194,0.62472 25.48309,-0.92678 10.60107,-2.49918 18.91635,-7.03942 26.53198,-14.49042 7.44699,-7.28601 11.83023,-14.81667 14.42501,-24.77873 1.76767,-6.78652 2.2398,-23.39 0.73271,-25.7644 -0.69478,-1.09461 -7.20904,-1.34776 -28.73227,-1.1165 l -27.83383,0.30093 v 7.81545 7.81546 l 19.53863,0.62367 c 10.74625,0.34392 19.66423,0.72074 19.81776,0.83736 0.76364,0.58015 0.0946,4.82269 -1.4981,9.49675 -2.40538,7.05941 -10.00929,15.2138 -17.92932,19.22679 -6.11332,3.09752 -7.35246,3.31023 -19.37072,3.31023 -11.59329,0 -13.46016,-0.29224 -19.22463,-2.99403 C 87.573121,132.59654 77.985682,105.38188 88.837862,82.440389 100.12918,58.570557 131.13282,50.050984 153.04494,64.796743 c 3.12669,2.104121 6.03239,3.827043 6.4569,3.827043 1.56691,0 10.16837,-9.636436 10.16837,-11.391719 0,-0.999083 -2.48808,-3.64379 -5.53012,-5.876854 C 153.8071,43.770098 139.88375,39.863171 126.38213,40.212086 Z"
   id="path918"
   inkscape:connector-curvature="0" /></svg>